<svg xmlns="http://www.w3.org/2000/svg" width="47.302" height="47.302" viewBox="0 0 47.302 47.302"><defs><style>.a{fill:#3e5c9a;}.b{fill:#fff;}</style></defs><g transform="translate(0 0)"><path class="a" d="M290,127.416h0a23.651,23.651,0,0,1-23.651-23.651h0A23.651,23.651,0,0,1,290,80.114h0a23.651,23.651,0,0,1,23.651,23.651h0A23.651,23.651,0,0,1,290,127.416Z" transform="translate(-266.345 -80.114)"/><path class="b" d="M295.2,122.891h5.757V108.475h4.017l.428-4.827h-4.445V100.9c0-1.138.228-1.588,1.329-1.588H305.4V94.3h-3.986c-4.284,0-6.215,1.887-6.215,5.5v3.849H292.2v4.887H295.2Z" transform="translate(-275.15 -84.945)"/></g></svg>