<svg xmlns="http://www.w3.org/2000/svg" xmlns:xlink="http://www.w3.org/1999/xlink" width="47.302" height="47.302" viewBox="0 0 47.302 47.302"><defs><style>.a{fill:url(#a);}.b{fill:#fff;}</style><radialGradient id="a" cx="-0.025" cy="1.003" r="1.849" gradientTransform="translate(0)" gradientUnits="objectBoundingBox"><stop offset="0" stop-color="#f5ec53"/><stop offset="0.241" stop-color="#e48244"/><stop offset="0.397" stop-color="#d05667"/><stop offset="0.489" stop-color="#c84278"/><stop offset="1" stop-color="#192cfa"/></radialGradient></defs><g transform="translate(0 0)"><path class="a" d="M395.029,127.416h0a23.651,23.651,0,0,1-23.651-23.651h0a23.651,23.651,0,0,1,23.651-23.651h0a23.651,23.651,0,0,1,23.651,23.651h0A23.651,23.651,0,0,1,395.029,127.416Z" transform="translate(-371.378 -80.114)"/><g transform="translate(10.683 10.683)"><path class="b" d="M400.545,98.651c3.463,0,3.873.013,5.24.075a7.176,7.176,0,0,1,2.408.447,4.3,4.3,0,0,1,2.461,2.46,7.177,7.177,0,0,1,.447,2.408c.062,1.367.075,1.777.075,5.24s-.013,3.872-.075,5.24a7.168,7.168,0,0,1-.447,2.408,4.3,4.3,0,0,1-2.461,2.461,7.164,7.164,0,0,1-2.408.446c-1.367.062-1.777.076-5.24.076s-3.872-.014-5.24-.076a7.155,7.155,0,0,1-2.408-.446,4.295,4.295,0,0,1-2.461-2.461,7.19,7.19,0,0,1-.446-2.408c-.063-1.368-.075-1.777-.075-5.24s.013-3.873.075-5.24a7.2,7.2,0,0,1,.446-2.408,4.3,4.3,0,0,1,2.461-2.46,7.167,7.167,0,0,1,2.408-.447c1.368-.062,1.778-.075,5.24-.075m0-2.336c-3.522,0-3.963.015-5.346.078a9.525,9.525,0,0,0-3.148.6,6.63,6.63,0,0,0-3.793,3.793,9.51,9.51,0,0,0-.6,3.148c-.063,1.384-.079,1.825-.079,5.347s.015,3.963.079,5.346a9.514,9.514,0,0,0,.6,3.148,6.63,6.63,0,0,0,3.793,3.793,9.541,9.541,0,0,0,3.148.6c1.383.063,1.825.078,5.346.078s3.963-.015,5.347-.078a9.545,9.545,0,0,0,3.148-.6,6.63,6.63,0,0,0,3.793-3.793,9.531,9.531,0,0,0,.6-3.148c.063-1.383.078-1.825.078-5.346s-.015-3.963-.078-5.347a9.527,9.527,0,0,0-.6-3.148,6.63,6.63,0,0,0-3.793-3.793,9.528,9.528,0,0,0-3.148-.6c-1.384-.063-1.825-.078-5.347-.078" transform="translate(-387.577 -96.314)"/><path class="b" d="M403.8,105.88a6.659,6.659,0,1,0,6.659,6.659,6.659,6.659,0,0,0-6.659-6.659m0,10.982a4.323,4.323,0,1,1,4.323-4.323,4.322,4.322,0,0,1-4.323,4.323" transform="translate(-390.835 -99.572)"/><path class="b" d="M418.491,104.678a1.556,1.556,0,1,1-1.556-1.556,1.557,1.557,0,0,1,1.556,1.556" transform="translate(-397.044 -98.632)"/></g></g></svg>