<svg xmlns="http://www.w3.org/2000/svg" width="47.302" height="47.302" viewBox="0 0 47.302 47.302"><defs><style>.a{fill:#29a9e1;}.b{fill:#fff;}</style></defs><g transform="translate(0 0)"><path class="a" d="M81.118,127.416h0a23.651,23.651,0,0,1-23.651-23.651h0A23.651,23.651,0,0,1,81.118,80.114h0a23.651,23.651,0,0,1,23.651,23.651h0A23.651,23.651,0,0,1,81.118,127.416Z" transform="translate(-57.467 -80.114)"/><path class="b" d="M74.222,118.607a14.705,14.705,0,0,0,22.622-13.057,10.471,10.471,0,0,0,2.58-2.677,10.3,10.3,0,0,1-2.969.814,5.18,5.18,0,0,0,2.273-2.86,10.371,10.371,0,0,1-3.283,1.256,5.174,5.174,0,0,0-8.811,4.716,14.675,14.675,0,0,1-10.657-5.4,5.177,5.177,0,0,0,1.6,6.9,5.165,5.165,0,0,1-2.343-.647,5.177,5.177,0,0,0,4.147,5.135,5.178,5.178,0,0,1-2.334.088,5.172,5.172,0,0,0,4.829,3.591A10.391,10.391,0,0,1,74.222,118.607Z" transform="translate(-63.173 -87.039)"/></g></svg>