<svg xmlns="http://www.w3.org/2000/svg" width="105.307" height="198.798" viewBox="0 0 105.307 198.798"><defs><style>.a{fill:#bc854a;}.b{fill:#e0a763;}.c{fill:#6d4925;}.d{fill:#ea8888;}.e{fill:#ce915b;}</style></defs><g transform="translate(-343.513 -31.767)"><path class="a" d="M408.888,195.206V152.845a10.016,10.016,0,0,0-9.987-9.987h-4.592a10.016,10.016,0,0,0-9.987,9.987v43.288C392.281,196.66,400.7,195.779,408.888,195.206Z"/><path class="b" d="M384.322,196.133v24.445a10.016,10.016,0,0,0,9.987,9.987H398.9a10.016,10.016,0,0,0,9.987-9.987V195.206C400.7,195.779,392.281,196.66,384.322,196.133Z"/><path class="c" d="M396.605,31.767c-27.089,0-49.05,20.537-49.05,45.871V171.82c0,7.8,11.6,14.3,19.946,14.3h58.172c8.348,0,19.946-6.508,19.946-14.3V78.952c.014-.438.036-.874.036-1.314C445.655,52.3,423.694,31.767,396.605,31.767Z"/><circle cx="6.032" cy="6.032" r="6.032" transform="translate(366.639 96.795)"/><circle cx="6.032" cy="6.032" r="6.032" transform="translate(416.493 96.795)"/><path class="d" d="M378.52,115.363a5.959,5.959,0,1,1-5.959-5.959A5.959,5.959,0,0,1,378.52,115.363Z"/><path class="d" d="M428.051,115.363a5.959,5.959,0,1,1-5.959-5.959A5.959,5.959,0,0,1,428.051,115.363Z"/><path class="e" d="M382.911,40.792l8.316-3.118-4.158-5.906-10.395,1.125v6.653Z"/><path class="e" d="M366.487,59.82l6.653-4.268,3.534,5.2-6.029,5.2L364.823,64.7Z"/><path class="e" d="M354.22,50.979l3.742,2.7,6.861-2.7,2.287-6.029L361.5,43.91Z"/><path class="e" d="M391.227,48.8l-3.119,4.886,5.2,1.871,6.653-3.378V48.8Z"/><path class="e" d="M403.691,32.225l1.247,5.613,7.276,2.495,1.871-4.054-2.079-3.222Z"/><path class="e" d="M420.333,40.792l6.653-2.495,2.859,5.613,1.091,2.495L423.452,48.8s-3.327-.936-3.119-2.391A48.629,48.629,0,0,0,420.333,40.792Z"/><path class="e" d="M408.888,55.553l5.208-1.871,4.99.936V57.84l-6.029,3.742L406.4,60.75l1.455-5.2Z"/><path class="e" d="M433.431,58.879l-2.495,3.326,4.574,2.911h3.119l2.7-4.366-1.455-3.118Z"/><path class="e" d="M381.74,83.759l8.316-3.118L385.9,74.734l-10.4,1.125v6.653Z"/><path class="e" d="M345.7,98.593l6.653-4.268,3.534,5.2-6.029,5.2-5.821-1.247Z"/><path class="e" d="M343.513,77.394l3.742,2.7,6.861-2.7,2.287-6.029-5.613-1.039Z"/><path class="e" d="M402.52,75.192l1.247,5.613,7.277,2.495,1.871-4.054-2.079-3.222Z"/><path class="e" d="M436.034,77.192l6.653-2.5,2.859,5.614,1.091,2.5-7.484,2.39s-3.327-.935-3.119-2.39A48.637,48.637,0,0,0,436.034,77.192Z"/><path class="e" d="M440.811,96.025l-2.495,3.326,4.574,2.911h3.119l2.7-4.366-1.455-3.118Z"/><path class="e" d="M368.669,143l6.653-4.268,3.534,5.2-6.029,5.2-5.821-1.247Z"/><path class="e" d="M345.929,131.044l3.742,2.7,6.861-2.7,2.287-6.029-5.613-1.04Z"/><path class="e" d="M393.41,131.979l-3.118,4.886,5.2,1.871,6.653-3.378v-3.378Z"/><path class="e" d="M438.217,119.541l6.653-2.5,2.859,5.613,1.091,2.5-7.484,2.391s-3.327-.936-3.119-2.391A48.629,48.629,0,0,0,438.217,119.541Z"/><path class="e" d="M411.071,138.736l5.208-1.871,4.99.936v3.222l-6.029,3.742-6.653-.832,1.455-5.2Z"/><path class="e" d="M435.614,142.062l-2.495,3.327,4.574,2.911h3.118l2.7-4.366-1.455-3.119Z"/><path class="e" d="M411.081,180.2l-8.316,3.118,4.158,5.906,10.4-1.125v-6.653Z"/><path class="e" d="M432.075,161.169l-6.653,4.268-3.534-5.2,6.029-5.2,5.821,1.247Z"/><path class="e" d="M447.776,173.137l-3.742-2.7-6.861,2.7-2.287,6.029,5.613,1.04Z"/><path class="e" d="M402.765,172.193l3.118-4.886-5.2-1.871-6.653,3.378v3.378Z"/><path class="e" d="M390.3,188.764l-1.247-5.613-7.277-2.495-1.871,4.054,2.079,3.222Z"/><path class="e" d="M362.868,183.41l-6.653,2.495-2.859-5.613-1.091-2.5,7.484-2.391s3.327.936,3.119,2.391A48.622,48.622,0,0,0,362.868,183.41Z"/><path class="e" d="M385.1,165.436l-5.208,1.871-4.99-.936V163.15l6.029-3.742,6.653.832-1.455,5.2Z"/><path class="e" d="M355.076,161.9l2.495-3.326L353,155.665h-3.118l-2.7,4.366,1.455,3.118Z"/><path d="M396.568,100.833c.3-.012.605-.011.912,0,7.839.339,12.054,9.451,12.229,9.838a1.445,1.445,0,0,1-2.631,1.194c-.037-.079-3.666-7.885-9.722-8.146a7.721,7.721,0,0,0-5.871,2.328,9.98,9.98,0,0,0-2.884,5.08,1.447,1.447,0,0,1-1.387,1.472h-.029a1.444,1.444,0,0,1-1.473-1.413c-.034-1.667,1.387-4.893,3.743-7.195A10.66,10.66,0,0,1,396.568,100.833Z"/><path d="M371.936,94.913q-.179.185-.377.354c-3.36,2.912-8.642.8-8.865.708a.818.818,0,0,1,.619-1.515c.046.018,4.578,1.82,7.175-.43A4.376,4.376,0,0,0,372,90.786a5.645,5.645,0,0,0-.79-3.214.82.82,0,0,1,0-1.146l.012-.011a.817.817,0,0,1,1.156.008,6.842,6.842,0,0,1,1.259,4.42A6.032,6.032,0,0,1,371.936,94.913Z"/><path d="M425.745,95.948c-.142-.1-.281-.2-.417-.305-3.481-2.766-2.377-8.348-2.329-8.583a.819.819,0,0,1,1.6.329c-.009.048-.946,4.835,1.743,6.973a4.376,4.376,0,0,0,3.467.888,5.658,5.658,0,0,0,3.014-1.368.82.82,0,0,1,1.126-.213l.014.01a.818.818,0,0,1,.2,1.138,6.838,6.838,0,0,1-4.112,2.052A6.042,6.042,0,0,1,425.745,95.948Z"/></g></svg>